<?xml version="1.0" encoding="utf-8"?>
<!-- Generator: Adobe Illustrator 19.0.0, SVG Export Plug-In . SVG Version: 6.00 Build 0)  -->
<svg version="1.1" xmlns="http://www.w3.org/2000/svg" xmlns:xlink="http://www.w3.org/1999/xlink" x="0px" y="0px"
	 viewBox="0 0 876.4 876.4" style="enable-background:new 0 0 876.4 876.4;" xml:space="preserve">
<style type="text/css">
	.st0{clip-path:url(#SVGID_2_);}
	.st1{fill:#FFFFFF;}
</style>
<g id="Background">
</g>
<g id="Graphic_Elements">
	<g>
		<g>
			<defs>
				<circle id="SVGID_1_" cx="438.2" cy="438.2" r="425"/>
			</defs>
			<clipPath id="SVGID_2_">
				<use xlink:href="#SVGID_1_"  style="overflow:visible;"/>
			</clipPath>
			<g class="st0">
				<defs>
					<rect id="SVGID_3_" x="-18.3" y="-18.3" width="913" height="913"/>
				</defs>
				<clipPath id="SVGID_4_">
					<use xlink:href="#SVGID_3_"  style="overflow:visible;"/>
				</clipPath>
				<g style="clip-path:url(#SVGID_4_);">
					
						<image style="overflow:visible;" width="304" height="303" xlink:href="CC811929.jpg"  transform="matrix(3.0222 0 0 3.0222 -21.1531 -20.6865)">
					</image>
				</g>
			</g>
		</g>
		<g>
			<g>
				<path class="st1" d="M438.2,218.8c71.5,0,79.9,0.3,108.1,1.6c26.1,1.2,40.3,5.5,49.7,9.2c12.5,4.9,21.4,10.7,30.8,20
					c9.4,9.4,15.2,18.3,20,30.8c3.7,9.4,8,23.6,9.2,49.7c1.3,28.2,1.6,36.7,1.6,108.1s-0.3,79.9-1.6,108.1
					c-1.2,26.1-5.5,40.3-9.2,49.7c-4.9,12.5-10.7,21.4-20,30.8c-9.4,9.4-18.3,15.2-30.8,20c-9.4,3.7-23.6,8-49.7,9.2
					c-28.2,1.3-36.7,1.6-108.1,1.6c-71.5,0-79.9-0.3-108.1-1.6c-26.1-1.2-40.3-5.5-49.7-9.2c-12.5-4.9-21.4-10.7-30.8-20
					c-9.4-9.4-15.2-18.3-20-30.8c-3.7-9.4-8-23.6-9.2-49.7c-1.3-28.2-1.6-36.7-1.6-108.1s0.3-79.9,1.6-108.1
					c1.2-26.1,5.5-40.3,9.2-49.7c4.9-12.5,10.7-21.4,20-30.8c9.4-9.4,18.3-15.2,30.8-20c9.4-3.7,23.6-8,49.7-9.2
					C358.3,219.1,366.8,218.8,438.2,218.8 M438.2,170.6c-72.7,0-81.8,0.3-110.3,1.6c-28.5,1.3-47.9,5.8-65,12.4
					c-17.6,6.8-32.5,16-47.4,30.9c-14.9,14.9-24,29.8-30.9,47.4c-6.6,17-11.1,36.5-12.4,65c-1.3,28.5-1.6,37.7-1.6,110.3
					c0,72.7,0.3,81.8,1.6,110.3c1.3,28.5,5.8,47.9,12.4,65c6.8,17.6,16,32.5,30.9,47.4c14.9,14.9,29.8,24,47.4,30.9
					c17,6.6,36.5,11.1,65,12.4c28.5,1.3,37.7,1.6,110.3,1.6c72.7,0,81.8-0.3,110.3-1.6c28.5-1.3,47.9-5.8,65-12.4
					c17.6-6.8,32.5-16,47.4-30.9c14.9-14.9,24-29.8,30.9-47.4c6.6-17,11.1-36.5,12.4-65c1.3-28.5,1.6-37.7,1.6-110.3
					s-0.3-81.8-1.6-110.3c-1.3-28.5-5.8-47.9-12.4-65c-6.8-17.6-16-32.5-30.9-47.4c-14.9-14.9-29.8-24-47.4-30.9
					c-17-6.6-36.5-11.1-65-12.4C520,170.9,510.9,170.6,438.2,170.6L438.2,170.6z"/>
				<path class="st1" d="M438.2,300.8c-75.9,0-137.4,61.5-137.4,137.4s61.5,137.4,137.4,137.4c75.9,0,137.4-61.5,137.4-137.4
					S514.1,300.8,438.2,300.8z M438.2,527.4c-49.3,0-89.2-39.9-89.2-89.2S389,349,438.2,349s89.2,39.9,89.2,89.2
					S487.5,527.4,438.2,527.4z"/>
				<circle class="st1" cx="581.1" cy="295.4" r="32.1"/>
			</g>
		</g>
	</g>
</g>
</svg>
