<?xml version="1.0" encoding="utf-8"?>
<!-- Generator: Adobe Illustrator 19.0.0, SVG Export Plug-In . SVG Version: 6.00 Build 0)  -->
<svg version="1.1" xmlns="http://www.w3.org/2000/svg" xmlns:xlink="http://www.w3.org/1999/xlink" x="0px" y="0px"
	 viewBox="0 0 283.1 283.1" style="enable-background:new 0 0 283.1 283.1;" xml:space="preserve">
<style type="text/css">
	.st0{fill:url(#SVGID_1_);}
	.st1{fill:url(#SVGID_2_);}
	.st2{fill:url(#SVGID_3_);}
</style>
<g id="BACKGROUND">
</g>
<g id="OBJECTS">
	<g>
		<g>
			
				<image style="overflow:visible;opacity:0.1;" width="278" height="276" xlink:href="51CBD351.png"  transform="matrix(1 0 0 1 6.5284 7.5284)">
			</image>
			<g>
				<g>
					<linearGradient id="SVGID_1_" gradientUnits="userSpaceOnUse" x1="47.5714" y1="244.0262" x2="245.5708" y2="28.0266">
						<stop  offset="3.902440e-002" style="stop-color:#774ADF"/>
						<stop  offset="0.1495" style="stop-color:#9748BE"/>
						<stop  offset="0.3043" style="stop-color:#BD4697"/>
						<stop  offset="0.4465" style="stop-color:#D8447A"/>
						<stop  offset="0.57" style="stop-color:#E94369"/>
						<stop  offset="0.661" style="stop-color:#EF4363"/>
						<stop  offset="0.7221" style="stop-color:#EF545E"/>
						<stop  offset="0.843" style="stop-color:#F08053"/>
						<stop  offset="1" style="stop-color:#F2C141"/>
					</linearGradient>
					<path class="st0" d="M141.5,74.5c-36.9,0-67,30-67,67c0,36.9,30,67,67,67c36.9,0,67-30,67-67
						C208.5,104.6,178.5,74.5,141.5,74.5z M141.5,183c-22.8,0-41.4-18.6-41.4-41.4c0-22.8,18.6-41.4,41.4-41.4
						c22.8,0,41.4,18.6,41.4,41.4C183,164.4,164.4,183,141.5,183z"/>
					<linearGradient id="SVGID_2_" gradientUnits="userSpaceOnUse" x1="47.5717" y1="244.0265" x2="245.5715" y2="28.0264">
						<stop  offset="3.902440e-002" style="stop-color:#774ADF"/>
						<stop  offset="0.1495" style="stop-color:#9748BE"/>
						<stop  offset="0.3043" style="stop-color:#BD4697"/>
						<stop  offset="0.4465" style="stop-color:#D8447A"/>
						<stop  offset="0.57" style="stop-color:#E94369"/>
						<stop  offset="0.661" style="stop-color:#EF4363"/>
						<stop  offset="0.7221" style="stop-color:#EF545E"/>
						<stop  offset="0.843" style="stop-color:#F08053"/>
						<stop  offset="1" style="stop-color:#F2C141"/>
					</linearGradient>
					<path class="st1" d="M196.3,12.5H86.8c-40.9,0-74.2,33.3-74.2,74.2v109.5c0,40.9,33.3,74.2,74.2,74.2h109.5
						c40.9,0,74.2-33.3,74.2-74.2V86.8C270.5,45.8,237.2,12.5,196.3,12.5z M245,196.3c0,26.8-21.8,48.7-48.7,48.7H86.8
						c-26.8,0-48.7-21.8-48.7-48.7V86.8c0-26.8,21.8-48.7,48.7-48.7h109.5c26.8,0,48.7,21.8,48.7,48.7V196.3z"/>
					<linearGradient id="SVGID_3_" gradientUnits="userSpaceOnUse" x1="50.1809" y1="246.4178" x2="248.1804" y2="30.4179">
						<stop  offset="3.902440e-002" style="stop-color:#774ADF"/>
						<stop  offset="0.1495" style="stop-color:#9748BE"/>
						<stop  offset="0.3043" style="stop-color:#BD4697"/>
						<stop  offset="0.4465" style="stop-color:#D8447A"/>
						<stop  offset="0.57" style="stop-color:#E94369"/>
						<stop  offset="0.661" style="stop-color:#EF4363"/>
						<stop  offset="0.7221" style="stop-color:#EF545E"/>
						<stop  offset="0.843" style="stop-color:#F08053"/>
						<stop  offset="1" style="stop-color:#F2C141"/>
					</linearGradient>
					<path class="st2" d="M209.4,55.2c-9.7,0-17.5,7.9-17.5,17.5c0,9.7,7.9,17.5,17.5,17.5c9.7,0,17.5-7.9,17.5-17.5
						C226.9,63,219.1,55.2,209.4,55.2z"/>
				</g>
			</g>
		</g>
	</g>
</g>
<g id="DESIGNED_BY_FREEPIK">
</g>
</svg>
