<?xml version="1.0" encoding="UTF-8"?>
<!DOCTYPE svg PUBLIC "-//W3C//DTD SVG 1.1//EN" "http://www.w3.org/Graphics/SVG/1.1/DTD/svg11.dtd">
<!-- Creator: CorelDRAW 2021 (64-Bit) -->
<svg xmlns="http://www.w3.org/2000/svg" xml:space="preserve" width="114.532mm" height="92.0693mm" version="1.1" style="shape-rendering:geometricPrecision; text-rendering:geometricPrecision; image-rendering:optimizeQuality; fill-rule:evenodd; clip-rule:evenodd"
viewBox="0 0 9235.9 7424.52"
 xmlns:xlink="http://www.w3.org/1999/xlink"
 xmlns:xodm="http://www.corel.com/coreldraw/odm/2003">
 <defs>
  <style type="text/css">
   <![CDATA[
    .fil5 {fill:#FBB141}
    .fil3 {fill:#EF4B49}
    .fil2 {fill:#D8303B}
    .fil4 {fill:#E29245}
    .fil1 {fill:#A8CF45}
    .fil7 {fill:#75CFEA}
    .fil0 {fill:#7BB24D}
    .fil6 {fill:#0077A9}
    .fil9 {fill:#75CFEA;fill-rule:nonzero}
    .fil8 {fill:#0077A9;fill-rule:nonzero}
   ]]>
  </style>
 </defs>
 <g id="Capa_x0020_1">
  <metadata id="CorelCorpID_0Corel-Layer"/>
  <g id="_2151532295792">
   <polygon class="fil0" points="3656.62,3189.55 4071.13,3189.55 5346.94,1913.72 5570.35,1913.72 5889.25,1594.76 4613.47,1594.76 4932.42,1913.72 "/>
   <polygon class="fil1" points="5570.33,1913.73 5570.33,2137.11 4517.89,3189.55 4932.41,3189.55 5570.33,2551.63 5889.26,2870.59 5889.26,1594.77 "/>
   <polygon class="fil2" points="5889.26,1913.73 5889.26,2328.26 6941.7,1275.84 7165.11,1275.84 7484.04,956.88 6208.22,956.88 6527.19,1275.84 "/>
   <polygon class="fil3" points="7165.07,1275.83 7165.07,1499.21 5495.21,3189.54 5909.74,3189.54 7165.07,1913.72 7484.03,2232.69 7484.03,956.87 "/>
   <polygon class="fil4" points="5570.33,1594.77 5155.81,1594.77 6208.23,542.33 6208.23,318.96 6527.19,0 6527.19,1275.84 6208.23,956.88 "/>
   <polygon class="fil5" points="6208.22,318.97 5984.82,318.97 4932.41,1371.41 4932.41,956.87 5570.32,318.97 5251.36,0.01 6527.18,0.01 "/>
   <polygon class="fil6" points="3044.29,3189.55 2629.76,3189.55 4613.48,1180.25 4613.48,956.87 4932.42,637.91 4932.42,1913.72 4613.48,1594.76 "/>
   <polygon class="fil7" points="4613.47,956.87 4390.07,956.87 2157.43,3189.55 1742.88,3189.55 3975.55,956.87 3656.62,637.91 4932.4,637.91 "/>
   <path class="fil8" d="M764.46 4518.14c147.99,0 238.08,-77.2 238.08,-195.14l0 -4.3c0,-128.7 -90.09,-197.32 -240.21,-197.32l-195.18 0 0 396.76 197.31 0zm-613.4 -746.36l643.45 0c379.61,0 624.12,195.16 624.12,527.63l0 4.27c0,353.89 -272.39,540.48 -645.57,540.48l-205.91 0 0 428.98 -416.09 0 0 -1501.35z"/>
   <path class="fil8" d="M2113.57 4492.42c141.56,0 223.06,-68.62 223.06,-178.03l0 -4.27c0,-117.98 -85.79,-178.03 -225.19,-178.03l-272.4 0 0 360.33 274.52 0zm-690.64 -720.65l709.95 0c229.5,0 388.21,60.05 489,162.98 87.94,85.8 132.97,201.61 132.97,349.63l0 4.3c0,229.45 -122.24,381.77 -308.83,461.11l358.19 523.33 -480.43 0 -302.43 -454.69 -4.3 0 -178 0 0 454.69 -416.11 0 0 -1501.35z"/>
   <polygon class="fil8" points="2802.09,3771.78 3220.33,3771.78 3220.33,5273.12 2802.09,5273.12 "/>
   <polygon class="fil8" points="3323.3,3771.77 3762.99,3771.77 4121.15,4353.03 4479.34,3771.77 4919.03,3771.77 4919.03,5273.12 4505.08,5273.12 4505.08,4410.92 4121.15,4998.6 4112.59,4998.6 3730.81,4415.22 3730.81,5273.12 3323.3,5273.12 "/>
   <polygon class="fil8" points="5013.45,3771.77 6220.96,3771.77 6220.96,4125.64 5425.27,4125.64 5425.27,4353.03 6145.92,4353.03 6145.92,4681.17 5425.27,4681.17 5425.27,4919.22 6231.69,4919.22 6231.69,5273.12 5013.45,5273.12 "/>
   <path class="fil8" d="M6963.13 4492.42c141.56,0 223.06,-68.62 223.06,-178.03l0 -4.27c0,-117.98 -85.8,-178.03 -225.2,-178.03l-272.39 0 0 360.33 274.52 0zm-690.61 -720.65l709.93 0c229.5,0 388.2,60.05 489,162.98 87.93,85.8 132.99,201.61 132.99,349.63l0 4.3c0,229.45 -122.27,381.77 -308.86,461.11l358.17 523.33 -480.41 0 -302.43 -454.69 -4.3 0 -178 0 0 454.69 -416.09 0 0 -1501.35z"/>
   <path class="fil8" d="M8784.12 4526.73l0 -4.27c0,-216.66 -156.58,-405.36 -386.07,-405.36 -227.33,0 -379.64,184.43 -379.64,401.03l0 4.33c0,216.6 156.57,405.36 383.93,405.36 229.46,0 381.78,-184.46 381.78,-401.09zm-1192.52 0l0 -4.27c0,-431.13 347.47,-780.73 810.74,-780.73 463.26,0 806.45,345.34 806.45,776.4l0 4.33c0,431.1 -347.46,780.7 -810.74,780.7 -463.28,0 -806.45,-345.33 -806.45,-776.43z"/>
   <path class="fil8" d="M711.44 6110.52l-118.57 -302.52 -120.08 302.52 238.66 0zm-258.43 -652.17l284.28 0 453.01 1071.73 -316.2 0 -77.53 -190.04 -410.44 0 -76.02 190.04 -310.11 0 453.01 -1071.73z"/>
   <polygon class="fil8" points="1172.18,5465.96 1447.33,5465.96 1885.14,6028.41 1885.14,5465.96 2177,5465.96 2177,6530.07 1918.57,6530.07 1464.05,5946.34 1464.05,6530.07 1172.18,6530.07 "/>
   <path class="fil8" d="M2207.52 6001.06l0 -3.04c0,-310.12 243.23,-553.35 573.11,-553.35 186.97,0 319.22,57.78 431.71,155.07l-173.31 208.27c-75.98,-63.87 -152,-100.34 -256.89,-100.34 -153.53,0 -272.11,129.21 -272.11,291.85l0 3.07c0,171.76 120.08,294.89 288.84,294.89 71.43,0 126.16,-15.19 170.23,-44.09l0 -129.22 -209.78 0 0 -215.86 489.51 0 0 478.84c-112.52,92.74 -269.07,164.21 -462.14,164.21 -331.39,0 -579.18,-228.04 -579.18,-550.31z"/>
   <path class="fil8" d="M4100.24 6001.06l0 -3.04c0,-153.54 -110.98,-287.3 -273.65,-287.3 -161.13,0 -269.07,130.72 -269.07,284.25l0 3.05c0,153.53 110.98,287.3 272.11,287.3 162.67,0 270.61,-130.75 270.61,-284.26zm-845.2 0l0 -3.04c0,-305.56 246.25,-553.35 574.6,-553.35 328.38,0 571.61,244.77 571.61,550.3l0 3.05c0,305.56 -246.28,553.35 -574.65,553.35 -328.35,0 -571.56,-244.77 -571.56,-550.31z"/>
   <path class="fil8" d="M4345.12 6371.97l164.18 -196.09c104.88,83.61 221.95,127.7 345.07,127.7 79.06,0 121.61,-27.37 121.61,-73l0 -3.02c0,-44.09 -34.96,-68.39 -179.36,-101.85 -226.5,-51.71 -401.34,-115.56 -401.34,-334.43l0 -3.07c0,-197.6 156.57,-340.5 411.98,-340.5 180.9,0 322.26,48.64 437.79,141.35l-147.44 208.3c-97.29,-68.45 -203.72,-104.92 -297.94,-104.92 -71.46,0 -106.42,30.41 -106.42,68.42l0 3.04c0,48.64 36.5,69.92 183.94,103.38 244.74,53.2 396.74,132.23 396.74,331.36l0 3.07c0,217.37 -171.77,346.59 -430.19,346.59 -188.5,0 -367.86,-59.28 -498.61,-176.34z"/>
   <polygon class="fil8" points="5524.86,5724.38 5205.63,5724.38 5205.63,5465.96 6139.02,5465.96 6139.02,5724.38 5819.78,5724.38 5819.78,6530.07 5524.86,6530.07 "/>
   <path class="fil8" d="M6133.02 6063.38l0 -597.42 299.48 0 0 591.33c0,153.56 77.52,226.54 196.09,226.54 118.57,0 196.09,-69.96 196.09,-218.92l0 -598.95 299.5 0 0 589.82c0,343.57 -196.12,494.06 -498.63,494.06 -302.49,0 -492.53,-153.54 -492.53,-486.46z"/>
   <path class="fil8" d="M7666.97 5976.73c100.31,0 158.12,-48.65 158.12,-126.17l0 -3.05c0,-83.58 -60.83,-126.16 -159.65,-126.16l-193.05 0 0 255.38 194.59 0zm-489.48 -510.76l503.13 0c162.67,0 275.19,42.55 346.62,115.53 62.33,60.79 94.28,142.9 94.28,247.78l0 3.05c0,162.66 -86.66,270.6 -218.94,326.84l253.87 370.91 -340.52 0 -214.33 -322.26 -3.02 0 -126.19 0 0 322.26 -294.89 0 0 -1064.1z"/>
   <path class="fil8" d="M8757.06 6110.52l-118.57 -302.52 -120.11 302.52 238.68 0zm-258.43 -652.17l284.26 0 453.01 1071.73 -316.18 0 -77.54 -190.04 -410.45 0 -75.99 190.04 -310.14 0 453.04 -1071.73z"/>
   <polygon class="fil9" points="146.99,6884.31 572.98,6884.31 572.98,7009.18 292.25,7009.18 292.25,7089.34 546.49,7089.34 546.49,7205.1 292.25,7205.1 292.25,7289.1 576.73,7289.1 576.73,7413.94 146.99,7413.94 "/>
   <path class="fil9" d="M551.03 7335.26l81.74 -97.63c52.2,41.62 110.44,63.58 171.74,63.58 39.34,0 60.54,-13.63 60.54,-36.33l0 -1.51c0,-21.93 -17.41,-34.05 -89.3,-50.69 -112.71,-25.72 -199.73,-57.5 -199.73,-166.45l0 -1.51c0,-98.37 77.91,-169.5 205.03,-169.5 90.04,0 160.42,24.24 217.91,70.38l-73.39 103.64c-48.42,-34.05 -101.39,-52.21 -148.31,-52.21 -35.55,0 -52.94,15.16 -52.94,34.05l0 1.51c0,24.21 18.15,34.82 91.55,51.46 121.81,26.48 197.46,65.79 197.46,164.94l0 1.51c0,108.19 -85.49,172.51 -214.1,172.51 -93.83,0 -183.09,-29.5 -248.19,-87.76z"/>
   <path class="fil9" d="M1240.33 7147.6c52.2,0 83.98,-27.23 83.98,-68.85l0 -1.51c0,-45.37 -31.78,-69.61 -84.72,-69.61l-68.88 0 0 139.97 69.62 0zm-216.38 -263.29l227 0c133.9,0 220.16,68.84 220.16,186.13l0 1.51c0,124.83 -96.1,190.66 -227.75,190.66l-72.63 0 0 151.32 -146.77 0 0 -529.62z"/>
   <path class="fil9" d="M1731.37 7205.11l-59 -150.55 -59.77 150.55 118.77 0zm-128.61 -324.57l141.48 0 225.48 533.41 -157.38 0 -38.6 -94.56 -204.25 0 -37.84 94.56 -154.36 0 225.48 -533.41z"/>
   <path class="fil9" d="M1908.44 7150.63l0 -1.51c0,-154.36 118.77,-275.38 279.19,-275.38 108.19,0 177.8,45.38 224.71,110.44l-110.46 85.49c-30.27,-37.81 -65.09,-62.02 -115.76,-62.02 -74.17,0 -126.36,62.82 -126.36,139.97l0 1.51c0,79.46 52.2,141.5 126.36,141.5 55.22,0 87.76,-25.72 119.54,-64.32l110.46 78.69c-49.95,68.87 -117.26,119.53 -234.55,119.53 -151.31,0 -273.13,-115.75 -273.13,-273.9z"/>
   <polygon class="fil9" points="2421.43,6884.31 2568.96,6884.31 2568.96,7413.94 2421.43,7413.94 "/>
   <path class="fil9" d="M3007.81 7150.63l0 -1.51c0,-76.42 -55.22,-142.98 -136.19,-142.98 -80.19,0 -133.93,65.06 -133.93,141.48l0 1.51c0,76.44 55.25,143.01 135.44,143.01 80.96,0 134.68,-65.06 134.68,-141.5zm-420.66 0l0 -1.51c0,-152.06 122.55,-275.38 285.98,-275.38 163.43,0 284.48,121.78 284.48,273.87l0 1.51c0,152.08 -122.56,275.4 -285.99,275.4 -163.43,0 -284.48,-121.78 -284.48,-273.9z"/>
   <path class="fil9" d="M3538.97 7147.6c52.21,0 83.98,-27.23 83.98,-68.85l0 -1.51c0,-45.37 -31.77,-69.61 -84.71,-69.61l-68.88 0 0 139.97 69.61 0zm-216.37 -263.29l226.99 0c133.91,0 220.16,68.84 220.16,186.13l0 1.51c0,124.83 -96.1,190.66 -227.76,190.66l-72.62 0 0 151.32 -146.77 0 0 -529.62z"/>
   <path class="fil9" d="M4173.76 7150.63l0 -1.51c0,-76.42 -55.21,-142.98 -136.18,-142.98 -80.2,0 -133.94,65.06 -133.94,141.48l0 1.51c0,76.44 55.25,143.01 135.44,143.01 80.96,0 134.67,-65.06 134.67,-141.5zm-420.66 0l0 -1.51c0,-152.06 122.56,-275.38 285.99,-275.38 163.43,0 284.48,121.78 284.48,273.87l0 1.51c0,152.08 -122.56,275.4 -285.99,275.4 -163.43,0 -284.48,-121.78 -284.48,-273.9z"/>
   <polygon class="fil9" points="4339.5,6884.31 4486.29,6884.31 4486.29,7285.32 4742.77,7285.32 4742.77,7413.94 4339.5,7413.94 "/>
   <path class="fil9" d="M4842.65 6708.79l133.9 43.13 -111.2 96.84 -101.39 0 78.69 -139.97zm-94.59 175.53l147.53 0 0 529.62 -147.53 0 0 -529.62z"/>
   <polygon class="fil9" points="5061.32,7012.94 4902.41,7012.94 4902.41,6884.33 5366.97,6884.33 5366.97,7012.94 5208.09,7012.94 5208.09,7413.95 5061.32,7413.95 "/>
   <polygon class="fil9" points="5373.77,6884.31 5521.33,6884.31 5521.33,7413.94 5373.77,7413.94 "/>
   <path class="fil9" d="M5539.49 7150.63l0 -1.51c0,-154.36 118.8,-275.38 279.16,-275.38 108.22,0 177.8,45.38 224.75,110.44l-110.47 85.49c-30.26,-37.81 -65.06,-62.02 -115.75,-62.02 -74.17,0 -126.37,62.82 -126.37,139.97l0 1.51c0,79.46 52.21,141.5 126.37,141.5 55.21,0 87.76,-25.72 119.53,-64.32l110.47 78.69c-49.92,68.87 -117.27,119.53 -234.53,119.53 -151.35,0 -273.16,-115.75 -273.16,-273.9z"/>
   <path class="fil9" d="M6436.86 7150.63l0 -1.51c0,-76.42 -55.21,-142.98 -136.18,-142.98 -80.2,0 -133.9,65.06 -133.9,141.48l0 1.51c0,76.44 55.21,143.01 135.41,143.01 80.96,0 134.67,-65.06 134.67,-141.5zm-420.66 0l0 -1.51c0,-152.06 122.56,-275.38 285.99,-275.38 163.43,0 284.51,121.78 284.51,273.87l0 1.51c0,152.08 -122.58,275.4 -286.02,275.4 -163.43,0 -284.48,-121.78 -284.48,-273.9z"/>
   <polygon class="fil9" points="6751.66,6884.31 6898.42,6884.31 6898.42,7285.32 7154.91,7285.32 7154.91,7413.94 6751.66,7413.94 "/>
   <path class="fil9" d="M7529.42 7150.63l0 -1.51c0,-76.42 -55.21,-142.98 -136.18,-142.98 -80.2,0 -133.9,65.06 -133.9,141.48l0 1.51c0,76.44 55.21,143.01 135.44,143.01 80.94,0 134.65,-65.06 134.65,-141.5zm-420.66 0l0 -1.51c0,-152.06 122.56,-275.38 286.02,-275.38 163.41,0 284.48,121.78 284.48,273.87l0 1.51c0,152.08 -122.58,275.4 -286.02,275.4 -163.43,0 -284.48,-121.78 -284.48,-273.9z"/>
   <path class="fil9" d="M7677 7150.63l0 -1.51c0,-154.36 118.8,-275.38 279.16,-275.38 108.21,0 177.8,45.38 224.74,110.44l-110.46 85.49c-30.27,-37.81 -65.06,-62.02 -115.76,-62.02 -74.17,0 -126.36,62.82 -126.36,139.97l0 1.51c0,79.46 52.2,141.5 126.36,141.5 55.22,0 87.76,-25.72 119.54,-64.32l110.46 78.69c-49.92,68.87 -117.26,119.53 -234.53,119.53 -151.34,0 -273.15,-115.75 -273.15,-273.9z"/>
   <path class="fil9" d="M8494.17 7205.11l-59 -150.55 -59.8 150.55 118.8 0zm-128.61 -324.57l141.47 0 225.48 533.41 -157.37 0 -38.6 -94.56 -204.26 0 -37.84 94.56 -154.36 0 225.49 -533.41z"/>
   <polygon class="fil9" points="8723.44,6884.31 8870.21,6884.31 8870.21,7285.32 9126.69,7285.32 9126.69,7413.94 8723.44,7413.94 "/>
  </g>
 </g>
</svg>
