<?xml version="1.0" encoding="utf-8"?>
<!-- Generator: Adobe Illustrator 19.0.0, SVG Export Plug-In . SVG Version: 6.00 Build 0)  -->
<svg version="1.1" id="Capa_1" xmlns="http://www.w3.org/2000/svg" xmlns:xlink="http://www.w3.org/1999/xlink" x="0px" y="0px"
	 viewBox="0 0 493 310" style="enable-background:new 0 0 493 310;" xml:space="preserve">
<style type="text/css">
	.st0{opacity:0.8;fill:#7BB24D;}
	.st1{fill:#FFFFFF;}
</style>
<rect id="XMLID_1_" x="0" y="0" class="st0" width="493" height="310"/>
<g id="XMLID_118_">
	<g id="XMLID_2_">
		<path id="XMLID_70_" class="st1" d="M66.8,126.3c6.7,0,10.8-3.5,10.8-8.9v-0.2c0-5.8-4.1-9-10.9-9h-8.9v18L66.8,126.3L66.8,126.3z
			 M39,92.5h29.2c17.2,0,28.3,8.9,28.3,23.9v0.2c0,16.1-12.4,24.5-29.3,24.5h-9.3v19.5H39V92.5L39,92.5z"/>
		<path id="XMLID_67_" class="st1" d="M130.9,125.2c6.4,0,10.1-3.1,10.1-8.1v-0.2c0-5.4-3.9-8.1-10.2-8.1h-12.4v16.4L130.9,125.2
			L130.9,125.2z M99.5,92.5h32.2c10.4,0,17.6,2.7,22.2,7.4c4,3.9,6,9.1,6,15.9v0.2c0,10.4-5.5,17.3-14,20.9l16.3,23.7h-21.8
			L126.7,140h-0.2h-8.1v20.6H99.5L99.5,92.5L99.5,92.5z"/>
		<polygon id="XMLID_66_" class="st1" points="163.2,92.5 182.2,92.5 182.2,160.6 163.2,160.6 		"/>
		<polygon id="XMLID_65_" class="st1" points="185.2,92.5 205.2,92.5 221.4,118.8 237.7,92.5 257.6,92.5 257.6,160.6 238.8,160.6 
			238.8,121.5 221.4,148.1 221,148.1 203.7,121.7 203.7,160.6 185.2,160.6 		"/>
		<polygon id="XMLID_64_" class="st1" points="260.6,92.5 315.4,92.5 315.4,108.5 279.3,108.5 279.3,118.8 312,118.8 312,133.7 
			279.3,133.7 279.3,144.5 315.9,144.5 315.9,160.6 260.6,160.6 		"/>
		<path id="XMLID_61_" class="st1" d="M350.3,125.2c6.4,0,10.1-3.1,10.1-8.1v-0.2c0-5.4-3.9-8.1-10.2-8.1h-12.4v16.4L350.3,125.2
			L350.3,125.2z M318.9,92.5h32.2c10.4,0,17.6,2.7,22.2,7.4c4,3.9,6,9.1,6,15.9v0.2c0,10.4-5.5,17.3-14,20.9l16.3,23.7h-21.8
			L346.1,140h-0.2h-8.1v20.6h-18.9L318.9,92.5L318.9,92.5z"/>
		<path id="XMLID_58_" class="st1" d="M434.7,126.7v-0.2c0-9.8-7.1-18.4-17.5-18.4c-10.3,0-17.2,8.4-17.2,18.2v0.2
			c0,9.8,7.1,18.4,17.4,18.4C427.8,144.9,434.7,136.6,434.7,126.7z M380.6,126.7v-0.2c0-19.6,15.8-35.4,36.8-35.4
			c21,0,36.6,15.7,36.6,35.2v0.2c0,19.6-15.8,35.4-36.8,35.4C396.2,162,380.6,146.3,380.6,126.7L380.6,126.7z"/>
	</g>
	<g id="XMLID_117_">
		<path id="XMLID_55_" class="st1" d="M69.5,197.3l-5.1-13l-5.1,13H69.5L69.5,197.3z M58.4,169.3h12.2l19.4,46H76.5l-3.3-8.2H55.6
			l-3.3,8.2H39C39,215.3,58.4,169.3,58.4,169.3z"/>
		<polygon id="XMLID_54_" class="st1" points="92.1,169.7 103.9,169.7 122.7,193.8 122.7,169.7 135.2,169.7 135.2,215.3 
			124.1,215.3 104.6,190.3 104.6,215.3 92.1,215.3 		"/>
		<path id="XMLID_53_" class="st1" d="M137.5,192.6v-0.1c0-13.3,10.4-23.7,24.6-23.7c8,0,13.7,2.5,18.5,6.7l-7.4,8.9
			c-3.3-2.7-6.5-4.3-11-4.3c-6.6,0-11.7,5.5-11.7,12.5v0.1c0,7.4,5.1,12.6,12.4,12.6c3.1,0,5.4-0.7,7.3-1.9v-5.5h-9v-9.3h21v20.5
			c-4.8,4-11.5,7-19.8,7C148.1,216.2,137.5,206.4,137.5,192.6L137.5,192.6z"/>
		<path id="XMLID_50_" class="st1" d="M220.5,192.6v-0.1c0-6.6-4.8-12.3-11.7-12.3c-6.9,0-11.5,5.6-11.5,12.2v0.1
			c0,6.6,4.8,12.3,11.7,12.3C215.9,204.8,220.5,199.2,220.5,192.6L220.5,192.6z M184.3,192.6v-0.1c0-13.1,10.6-23.7,24.6-23.7
			c14.1,0,24.5,10.5,24.5,23.6v0.1c0,13.1-10.6,23.7-24.6,23.7C194.7,216.2,184.3,205.7,184.3,192.6L184.3,192.6z"/>
		<path id="XMLID_49_" class="st1" d="M232,208.5l7-8.4c4.5,3.6,9.5,5.5,14.8,5.5c3.4,0,5.2-1.2,5.2-3.1v-0.1c0-1.9-1.5-2.9-7.7-4.4
			c-9.7-2.2-17.2-5-17.2-14.3v-0.1c0-8.5,6.7-14.6,17.7-14.6c7.8,0,13.8,2.1,18.8,6.1l-6.3,8.9c-4.2-2.9-8.7-4.5-12.8-4.5
			c-3.1,0-4.6,1.3-4.6,2.9v0.1c0,2.1,1.6,3,7.9,4.4c10.5,2.3,17,5.7,17,14.2v0.1c0,9.3-7.4,14.9-18.4,14.9
			C245.3,216.1,237.6,213.5,232,208.5L232,208.5z"/>
		<polygon id="XMLID_48_" class="st1" points="286.3,180.7 272.6,180.7 272.6,169.7 312.7,169.7 312.7,180.7 299,180.7 299,215.3 
			286.3,215.3 		"/>
		<path id="XMLID_47_" class="st1" d="M315.3,195.3v-25.6h12.8V195c0,6.6,3.3,9.7,8.4,9.7c5.1,0,8.4-3,8.4-9.4v-25.7h12.8V195
			c0,14.7-8.4,21.2-21.4,21.2C323.4,216.1,315.3,209.6,315.3,195.3z"/>
		<path id="XMLID_44_" class="st1" d="M381,191.6c4.3,0,6.8-2.1,6.8-5.4V186c0-3.6-2.6-5.4-6.8-5.4h-8.3v11H381L381,191.6z
			 M360.1,169.7h21.6c7,0,11.8,1.8,14.9,5c2.7,2.6,4,6.1,4,10.6v0.1c0,7-3.7,11.6-9.4,14l10.9,15.9h-14.6l-9.2-13.8h-0.1h-5.4v13.8
			h-12.6L360.1,169.7L360.1,169.7z"/>
		<path id="XMLID_41_" class="st1" d="M433.5,197.3l-5.1-13l-5.2,13H433.5L433.5,197.3z M422.4,169.3h12.2l19.4,46h-13.6l-3.3-8.2
			h-17.6l-3.3,8.2H403L422.4,169.3L422.4,169.3z"/>
	</g>
	<g id="XMLID_3_">
		<path id="XMLID_4_" class="st1" d="M42.9,64.6v8.7H53v-8.7h3.9v20.3H53v-8.2H42.9v8.2H39V64.6H42.9z"/>
		<path id="XMLID_6_" class="st1" d="M76.7,77.1c0,4.7-3.3,7.9-8.2,7.9c-4.9,0-8.2-3.2-8.2-7.9c0-4.7,3.3-7.9,8.2-7.9
			C73.4,69.3,76.7,72.4,76.7,77.1z M64.1,77.2c0,2.8,1.8,4.7,4.4,4.7c2.6,0,4.4-1.9,4.4-4.7s-1.8-4.7-4.4-4.7
			C65.9,72.5,64.1,74.4,64.1,77.2z"/>
		<path id="XMLID_9_" class="st1" d="M83.9,63.4v21.5h-3.8V63.4H83.9z"/>
		<path id="XMLID_11_" class="st1" d="M97.9,84.9V83c-1.1,1.4-2.8,2.1-5,2.1c-3.3,0-5.4-2.1-5.4-4.8c0-2.9,2.1-4.6,5.9-4.7h4.5v-0.4
			c0-1.8-1.2-2.9-3.5-2.9c-1.5,0-3,0.5-4.6,1.5l-1.4-2.6c2.2-1.2,4-1.9,6.8-1.9c4.1,0,6.4,2.1,6.4,5.5l0,10.2H97.9z M97.9,79.5v-1.4
			H94c-2,0-2.9,0.6-2.9,1.9c0,1.3,1,2.1,2.8,2.1C96,82.2,97.7,81,97.9,79.5z"/>
		<path id="XMLID_14_" class="st1" d="M109.1,83c0,1.2-0.8,2.1-2,2.1c-1.1,0-2-0.9-2-2.1s0.8-2.1,2-2.1
			C108.2,81,109.1,81.8,109.1,83z M108.9,64.8v5l-0.6,8.4h-2.3l-0.6-8.4v-5H108.9z"/>
		<path id="XMLID_17_" class="st1" d="M127.8,68c-1.8,0-3,0.7-3,1.9c0,4.1,10.9,1.9,10.9,9.2c0,3.8-3.3,6-7.8,6
			c-3.2,0-6.4-1.3-8.6-3.2l1.6-3.3c2.1,1.9,4.8,3,7,3c2.2,0,3.5-0.8,3.5-2.2c0-4.2-10.9-1.8-10.9-9.1c0-3.5,3-5.8,7.6-5.8
			c2.7,0,5.4,0.9,7.3,2.1l-1.6,3.4C131.7,68.6,129.4,68,127.8,68z"/>
		<path id="XMLID_19_" class="st1" d="M154.1,77.1c0,4.7-3.3,7.9-8.2,7.9c-4.9,0-8.2-3.2-8.2-7.9c0-4.7,3.3-7.9,8.2-7.9
			C150.8,69.3,154.1,72.4,154.1,77.1z M141.6,77.2c0,2.8,1.8,4.7,4.4,4.7c2.6,0,4.4-1.9,4.4-4.7s-1.8-4.7-4.4-4.7
			C143.4,72.5,141.6,74.4,141.6,77.2z"/>
		<path id="XMLID_22_" class="st1" d="M183.4,75.2v9.7h-3.8v-8.6c0-2.2-1.3-3.5-3.4-3.5c-2.4,0.1-3.9,1.9-3.9,4.5v7.7h-3.8v-8.6
			c0-2.2-1.3-3.5-3.4-3.5c-2.5,0.1-3.9,1.9-3.9,4.5v7.7h-3.8V69.4h3.8v2.9c1.1-2.1,3-3,5.5-3c2.7,0,4.6,1.4,5.3,3.7
			c1-2.5,3-3.7,5.8-3.7C181.2,69.2,183.4,71.5,183.4,75.2z"/>
		<path id="XMLID_24_" class="st1" d="M202.5,77.1c0,4.7-3.3,7.9-8.2,7.9c-4.9,0-8.2-3.2-8.2-7.9c0-4.7,3.3-7.9,8.2-7.9
			C199.2,69.3,202.5,72.4,202.5,77.1z M190,77.2c0,2.8,1.8,4.7,4.4,4.7c2.6,0,4.4-1.9,4.4-4.7s-1.8-4.7-4.4-4.7
			C191.8,72.5,190,74.4,190,77.2z"/>
		<path id="XMLID_27_" class="st1" d="M210.4,72.2c-1.2,0-2.1,0.4-2.1,1.4c0,2.6,8.2,1.2,8.2,6.8c0,3.2-2.8,4.7-6.1,4.7
			c-2.3,0-4.8-0.8-6.4-2.2l1.3-2.6c1.4,1.2,3.6,1.9,5.3,1.9c1.3,0,2.3-0.4,2.3-1.5c0-2.9-8.1-1.3-8.1-6.8c0-3.2,2.7-4.7,5.9-4.7
			c2,0,4.1,0.6,5.7,1.7l-1.4,2.7C213.5,72.7,211.8,72.2,210.4,72.2z"/>
	</g>
	<g id="XMLID_29_">
		<path id="XMLID_30_" class="st1" d="M48.1,237.9c1.9,0,3.2-1.3,3.2-3.6v-11.1H57v11.1c0,5.1-3.5,8.4-9,8.4c-5.5,0-9.1-3.3-9.1-8.4
			v-11.1h5.7v11.1C44.7,236.5,46.2,237.9,48.1,237.9z"/>
		<path id="XMLID_32_" class="st1" d="M64.8,223.2l8.1,10.7v-10.7h5.2v19.2h-4.8l-8.1-10.7v10.7H60v-19.2H64.8z"/>
		<path id="XMLID_34_" class="st1" d="M105.3,223.2v4.4h-10v3h9.1v4.4h-9.1v3h10.3v4.4h-16v-19.2H105.3z"/>
		<path id="XMLID_36_" class="st1" d="M115.8,227.4c-1,0-1.6,0.3-1.6,1c0,2.8,10,1.1,10,8.1c0,4.1-3.6,6-7.9,6c-3.3,0-6.8-1.1-9.2-3
			l2.1-4.3c2,1.7,5.2,2.9,7.1,2.9c1.2,0,2-0.4,2-1.3c0-2.9-10-1.1-10-7.8c0-3.7,3.1-6.1,7.9-6.1c2.9,0,5.9,0.9,8,2.2l-2.1,4.4
			C120.2,228.4,117.4,227.4,115.8,227.4z"/>
		<path id="XMLID_38_" class="st1" d="M142.8,230c0,4.6-2.8,7.2-7.8,7.2h-3v5.2h-5.7v-19.2h8.7C139.9,223.2,142.8,225.6,142.8,230z
			 M137.4,230.2c0-1.7-1-2.6-2.7-2.6H132v5.3h2.7C136.4,232.8,137.4,231.9,137.4,230.2z"/>
		<path id="XMLID_73_" class="st1" d="M156.3,239.3h-7.8l-1.2,3.1h-5.9l8.2-19.2h5.9l7.9,19.2h-6.1L156.3,239.3z M154.8,235.1
			l-2.3-6.3l-2.4,6.3H154.8z"/>
		<path id="XMLID_77_" class="st1" d="M173.7,227.8c-2.6,0-4.6,2.1-4.6,4.9c0,2.8,2,5,4.6,5c1.5,0,3.3-0.9,4.6-2.2l3.3,3.5
			c-2.1,2.2-5.2,3.7-8.1,3.7c-5.8,0-10.1-4.2-10.1-9.9c0-5.6,4.4-9.7,10.3-9.7c2.9,0,6,1.3,7.9,3.4l-3.3,3.9
			C177.1,228.8,175.3,227.8,173.7,227.8z"/>
		<path id="XMLID_79_" class="st1" d="M189,223.2v19.2h-5.7v-19.2H189z"/>
		<path id="XMLID_81_" class="st1" d="M212,232.8c0,5.6-4.4,9.9-10.5,9.9c-6,0-10.5-4.2-10.5-9.9c0-5.6,4.4-9.8,10.5-9.8
			C207.6,223,212,227.1,212,232.8z M196.9,232.8c0,2.9,2.2,5.1,4.7,5.1c2.5,0,4.5-2.2,4.5-5.1c0-2.9-2-5-4.5-5
			C199.1,227.8,196.9,229.9,196.9,232.8z"/>
		<path id="XMLID_84_" class="st1" d="M238.9,230c0,4.6-2.8,7.2-7.8,7.2h-3v5.2h-5.7v-19.2h8.7C236,223.2,238.9,225.6,238.9,230z
			 M233.5,230.2c0-1.7-1-2.6-2.7-2.6h-2.7v5.3h2.7C232.5,232.8,233.5,231.9,233.5,230.2z"/>
		<path id="XMLID_87_" class="st1" d="M260.9,232.8c0,5.6-4.4,9.9-10.5,9.9c-6,0-10.5-4.2-10.5-9.9c0-5.6,4.4-9.8,10.5-9.8
			C256.5,223,260.9,227.1,260.9,232.8z M245.8,232.8c0,2.9,2.2,5.1,4.7,5.1s4.5-2.2,4.5-5.1c0-2.9-2-5-4.5-5
			C248,227.8,245.8,229.9,245.8,232.8z"/>
		<path id="XMLID_90_" class="st1" d="M268.7,223.2v14.4h8.1v4.8H263v-19.2H268.7z"/>
		<path id="XMLID_92_" class="st1" d="M284.5,223.2v19.2h-5.7v-19.2H284.5z M286.7,218.4l-3.7,3.3h-4.1l2.9-4.9L286.7,218.4z"/>
		<path id="XMLID_95_" class="st1" d="M303.1,223.2v4.5h-5.6v14.7h-5.7v-14.7h-5.6v-4.5H303.1z"/>
		<path id="XMLID_97_" class="st1" d="M310.6,223.2v19.2h-5.7v-19.2H310.6z"/>
		<path id="XMLID_99_" class="st1" d="M323.1,227.8c-2.6,0-4.6,2.1-4.6,4.9c0,2.8,2,5,4.6,5c1.5,0,3.3-0.9,4.6-2.2l3.3,3.5
			c-2.1,2.2-5.2,3.7-8.1,3.7c-5.8,0-10.1-4.2-10.1-9.9c0-5.6,4.4-9.7,10.3-9.7c2.9,0,6,1.3,7.9,3.4l-3.3,3.9
			C326.5,228.8,324.7,227.8,323.1,227.8z"/>
		<path id="XMLID_101_" class="st1" d="M352.2,232.8c0,5.6-4.4,9.9-10.5,9.9c-6,0-10.5-4.2-10.5-9.9c0-5.6,4.4-9.8,10.5-9.8
			C347.8,223,352.2,227.1,352.2,232.8z M337.1,232.8c0,2.9,2.2,5.1,4.7,5.1c2.5,0,4.5-2.2,4.5-5.1c0-2.9-2-5-4.5-5
			C339.3,227.8,337.1,229.9,337.1,232.8z"/>
		<path id="XMLID_104_" class="st1" d="M368.3,223.2v14.4h8.1v4.8h-13.7v-19.2H368.3z"/>
		<path id="XMLID_106_" class="st1" d="M398.1,232.8c0,5.6-4.4,9.9-10.5,9.9c-6,0-10.5-4.2-10.5-9.9c0-5.6,4.4-9.8,10.5-9.8
			C393.7,223,398.1,227.1,398.1,232.8z M383,232.8c0,2.9,2.2,5.1,4.7,5.1c2.5,0,4.5-2.2,4.5-5.1c0-2.9-2-5-4.5-5
			C385.2,227.8,383,229.9,383,232.8z"/>
		<path id="XMLID_109_" class="st1" d="M409.4,227.8c-2.6,0-4.6,2.1-4.6,4.9c0,2.8,2,5,4.6,5c1.5,0,3.3-0.9,4.6-2.2l3.3,3.5
			c-2.1,2.2-5.2,3.7-8.1,3.7c-5.8,0-10.1-4.2-10.1-9.9c0-5.6,4.4-9.7,10.3-9.7c2.9,0,6,1.3,7.9,3.4l-3.3,3.9
			C412.8,228.8,411,227.8,409.4,227.8z"/>
		<path id="XMLID_111_" class="st1" d="M431.7,239.3h-7.8l-1.1,3.1h-5.9l8.2-19.2h5.9l7.9,19.2h-6.1L431.7,239.3z M430.2,235.1
			l-2.3-6.3l-2.4,6.3H430.2z"/>
		<path id="XMLID_114_" class="st1" d="M445.9,223.2v14.4h8.1v4.8h-13.7v-19.2H445.9z"/>
	</g>
</g>
</svg>
